<svg xmlns="http://www.w3.org/2000/svg" viewBox="0 0 331.98 112.3">
        <path
            d="M331.91 62.35s-.09-2.2-.09-2.49.09-17.62-.19-21.06c-.12-1.43-.21-2.42-.27-3.12a71.51 71.51 0 0 0-2.25-20c-1-4.08-3.27-7.46-7-9.29-5.48-2.71-11.24-4.52-17.36-4.26-6.75-.89-13.75-.44-20.62-.65C269.24 1 254.33-.29 239.46.06c-24.33.56-48.66-.07-73 .6-20.87.58-41.77.28-62.66.1q-37.05-.31-74.07 1a8.69 8.69 0 0 0-3.23.48c-8.11.48-14.14 4.6-18.39 11.61C2.89 22.47-1.44 31.38.46 42.1c.68 3.88.35 13 .3 17C.59 72.24 2 85.11 7 97.47a18.69 18.69 0 0 0 11 10.67c1.34.54 2.22 1.33 4.05 1.59 2.86.27 5 .43 6.56.5 2.1.53 4.32.28 6.44.28h69.72c24 0 47.92 1.92 71.91 1.72 13.62-.11 27.24-.09 40.85-.87A447.44 447.44 0 0 1 266 111c9.25.47 18.53.54 27.79.43 2.79 0 5.62 0 8.53-.27v.17c4.41.58 15.87-2.2 18.07-4.27 5-4.7 8.81-10.29 9.53-17.19.91-9.18 2.41-18.31 1.99-27.52zm-3.68 19.18a32.9 32.9 0 0 1-4.45 15.4c-3.08 5.66-7.24 9.84-14 10.64a24.26 24.26 0 0 0-3.43.78h-1.41c-16.52-.26-33-.44-49.57-.77-7.08-.14-14.15-.74-21.24-.27-20.85 1.38-41.74 2.17-62.62 1.81-30.86-.53-61.71-1.75-92.6-1.24-16.34.28-32.69 0-49 0-.38 0-.78-.06-1.18 0a18.3 18.3 0 0 0-2.59-.6c-10.49-1-16.18-7.45-18.85-17a89.83 89.83 0 0 1-3.76-26.36c.14-5.43.17-15.92-.4-21.31-1.22-11.53 2.14-21.5 9.25-30.41a19.08 19.08 0 0 1 11.86-7.14c2.64-.48 5.29-.8 8-1a52.32 52.32 0 0 0 7.38.14c10.16-.69 20.33-.74 30.48-.79 28.33-.14 56.66-.06 85 0 30.32.08 60.65-.08 91 .49q29.67.56 59.35.86c4.57 1 9.28 1.5 13.42 4.06s6.77 5.61 7.67 10.58 1.46 10.11 2 15.18l1.1 27.09c-.32 6.62-1.31 13.22-1.41 19.86z"
            fill="currentColor"
        />
</svg>