<svg xmlns="http://www.w3.org/2000/svg" viewBox="0 0 463.86 6.1">
        <path
            d="M463.84 4.21c-14-.68-27.92-1.66-41.89-2-29.05-.72-58.11-.94-87.16-1.69C305.37-.23 275.94 0 246.52.1c-25.24.06-50.47.78-75.71 1.29-17.07.35-34.13.91-51.19 1.28-18.15.39-36.3.79-54.46 1-17.79.16-35.58 0-53.38.08-3.93 0-7.85.58-11.78.88 1.84 1.28 3.67 1.13 5.48 1.13 12.34 0 24.69-.21 37 0 17.06.34 34.13.41 51.19.08 29.41-.57 58.81-1.32 88.21-2 32-.72 63.92-.86 95.87-.73q38.14.17 76.28.93c30.32.64 60.65.93 91 1.28 6.27.07 12.55-.25 18.82-.39z"
            fill="currentColor"
        />
</svg>