<svg xmlns="http://www.w3.org/2000/svg" viewBox="0 0 583.42 21.54">
    <defs>
        <style>
            .hr-svg {
                fill: currentColor;
                fill-rule: evenodd
            }
        </style>
    </defs>
    <g id="Layer_2" data-name="Layer 2">
        <g id="hr">
            <g id="hr-2" data-name="hr">
                <path
                    d="M583.42 9.32L547 6.58c-3-.25-6.08-.4-9.12-.56l-9.12-.5-18.23-1-9.12-.49c-3-.15-6.08-.24-9.12-.36L474 3l-18.24-.69-18.24-.48C388.89.44 340.26.07 291.64 0s-97.23.41-145.83 1.2S48.62 3.1 0 4.7L.43 17c48.48-1.59 97-2.66 145.58-3.47s97.08-1.28 145.62-1.21 97.08.43 145.56 1.82l18.18.48 18.17.68 18.17.69c3 .12 6.06.21 9.09.36l9.07.49 18.14 1 9.07.49c3 .16 6 .31 9.07.56l36.19 2.71z"
                    fill="none" />
                <path class="hr-svg"
                    d="M118.9 12.91c-.32 0-.88.07-1.53.08a5.14 5.14 0 0 1 1.53-.08zM95.51 5c-.47 0-1.93.15-1.78 0h1.78zM93 4.91c-.12.07-1.25 0-1.77.06A7.35 7.35 0 0 1 93 4.91zM85.9 6.34a10.43 10.43 0 0 1-1.79.06c.13-.07 1.26-.03 1.79-.06zM82.61 5.08a25.18 25.18 0 0 1-3.06.15c.45-.1 1.97-.1 3.06-.15zM73.92 11.83c-1.55 0-4.72.23-5.83.12 1.91.05 4.07-.15 5.83-.12zM69.69 9.06c-1.94.22-5.41.1-7.89.28-.35-.14 3.63-.1 4.34-.24s1 0 1.51 0a15.28 15.28 0 0 1 2.04-.04zM45.92 9.23c.06.08-.12.13-.78.14-.19 0-.26-.06-.23-.12zM36.08 10.51a69.15 69.15 0 0 1-7.11.24 3.56 3.56 0 0 1-.77.08c-1.18.05-3.82.07-1.26 0 3.16-.18 5.67-.16 9.14-.32zM34.86 9a16.58 16.58 0 0 1-1.79.1 10.11 10.11 0 0 1 1.79-.1zM32.56 13c-.29.08-1.6.05-2.29.09a15.55 15.55 0 0 1 2.29-.09zM33 9.6c-.62.09-2 .11-2.81.19-.72-.1 1.81-.15 2.81-.19zM31.8 9.21c-.5.1-2 .12-3.06.17.65-.1 2.07-.11 3.06-.17zM30.13 13.81a8.45 8.45 0 0 1-1.79.17 12.33 12.33 0 0 1 1.79-.17zM29 13.12c-.83.11-3.67.17-5.08.19 1.79-.12 3.14-.15 5.08-.19zM28.23 9.39c-1.3.17-3.21.12-4.31.14 1.2-.11 2.94-.02 4.31-.14zM24.91 10.89c-.49.06-1.34.09-2.05.14-.14-.13 1.19-.11 2.05-.14zM22.69 10.64a15 15 0 0 1-2 .08c.17-.07 1.39-.04 2-.08zM20.48 10.34c-.28.09-2.18.16-1.77 0 .55 0 .48 0 .49.08.61-.02.57-.09 1.28-.08zM15.21 12.79c1.25-.16 3.4 0 0 0zM12.46 14c-1.05.09-2.08.11-3.3.12.77-.12 2.78-.12 3.3-.12zM11.66 14.18c.37.08-1.67.14-1.26 0zM9.32 15.84a12 12 0 0 1-1.78.16 9.1 9.1 0 0 1 1.78-.16zM2.26 15.92c-2.1.21-2.85.09 0 0zM59.28 14.35c-.42.06-1 .09-1.29.15-.79-.1-2.22.05-3.28 0 1.29-.15 2.69-.01 4.57-.15zM30.89 12.53h-1.26c-.06 0 .25-.06.27-.1-1.27 0-2 .08-3 .11.14 0 .28-.06.28-.1-1.43.2-3.1 0-6.09.16 2.85-.26 9.19-.31 11.68-.42-.37.12-2.56.08-2.81.22-.11.1 1.36-.02.93.13zM28.15 9.78c-.29 0-.15 0 0 0a5.88 5.88 0 0 1-1.27 0c.31-.03 3.66-.08 1.27 0zM9.32 10.68v-.13c-1.62.06-4.22.17-5.31.09 1.92-.14 6-.06 7.37-.29h1.25c4.47-.33 9.33-.26 14-.52-2.08.38-6.82.08-9.18.48h.26c-2.05.05-5.71.09-8.39.37zM11.11 14.44c-.4.06-1.11.1-1.55.16a4.86 4.86 0 0 1 1.55-.16z" />
                <path class="hr-svg"
                    d="M518.36 17.26c1.13.06 2.38 0 3.57.08 2.78.15 5.27.4 8.07.49 2.48.08 4.82.05 7.4.15 1.92.08 2.55.07 3.83.1 3.74.11 6.79.44 8.43.24 2.63 0 5.92.12 8.22.1.36 0 1.13.07 1.27.07 5.87 0 9.5-.55 16.39-.37a13.75 13.75 0 0 1 2.23-.49c.52-.06 1.71 0 2.1-.11 1.43-.27.24-.83 2.88-.92.15-.08-.32-.14-.45-.21.15-.74-.84-1.44-.14-2-1.77-.48-1.35-.84-2.71-1.27-.85-.26-2.53-.58-3.62-.85-1.25-.31-2.58-.58-3.62-.89 0-.22-1.59-.38-1.88-.59-2-.29-3.45-.6-5.44-.88-.19-.09-.66-.17-.7-.27C560 9 555.78 8.18 550 7.6l-2.27-.2c-4.28-.37-10.88-.74-13.1-1.18-.77-.06-.76 0-1.53 0a25.91 25.91 0 0 0-4.71-.66c-.68 0-1.88.09-3.37 0-2.22-.07-4.31-.44-6.31-.51-.92 0-1.9.09-2.85.07-2.51 0-7.56-.37-9.65-.54-1.65-.14-2.26-.32-3.51-.36s-2 .08-1.89.32c-3.27.36-11.61-.33-16.61-.3-3.66-.33-7.18-.16-10.69-.32-.7 0-1.54-.13-2.27-.15h-4.35c-2.65 0-5-.14-7.14-.15a74.57 74.57 0 0 0-8.65-.25c-1.06 0-2.09-.15-3.28-.18h-3.06c-1.06 0-2.21-.19-3.26-.19h-2.05c-.84 0-1.37-.12-2.26-.13s-1.89.08-2.84.07c-3.46 0-7.18-.25-10.45-.11-5.89-.34-11-.17-18-.54-1.74 0-3 .06-4.83 0a10.18 10.18 0 0 1-1 .07c-3.63-.15-7.45.05-11.19-.12a2 2 0 0 1-.53.08c-5.16-.22-11.69-.33-15.75-.22-3.14-.2-6.8-.08-10.67-.14-1.82 0-3.62-.14-5.32-.11-3.34 0-7.72-.07-10.93-.05-1 0-1.89.09-2.82.1-1.7 0-3.52-.09-5.33-.06-7 .13-15-.05-21.09-.08-1.89 0-3.5.07-5.62.09-3.5 0-7.13-.11-10.65-.07l-2.56.08h-6.34c-5.44 0-10.89.18-16 0-6.53.19-16 .14-23.65.23-1.7.18-3.33 0-5.08.08-5.43.1-12.37.33-18.06.24L192.1 3c-12.18.17-24.32.36-36.14.74a62.6 62.6 0 0 0-6.35.14 22.33 22.33 0 0 0-2.26-.07c-3 .25-6.69.15-10.43.26-.95.21-3.2.09-4.61.26-.6-.09.81-.1-.22-.14-2.42.39-10.61.39-14.28.56.26 0 .31 0 0 .06a21.13 21.13 0 0 0-2.3.13c-6.67.17-11.42.61-17.11.85a20 20 0 0 0-3.28 0c1 0 2.33 0 2.25.11a46.48 46.48 0 0 0-5.11.24c-2.11.06-3.19 0-5.08.16-.46 0 .45.14-.54.16-3 0-4.45.16-7.1.14a35.84 35.84 0 0 1-4.84.22c-.86.08 1 .1.22.15-2.4.1-4.64.21-6.85.16a13.25 13.25 0 0 1-1.82.22c-.61 0 .17-.14-.74-.07s.67.12.46.23a6.36 6.36 0 0 0-1.56.24 42.37 42.37 0 0 0-4.35.25c-1.57.1-3.32.09-4.83.17-1.3.08-1.86.19-3.33.23h-3.53c-.7.05.47.1-.53.13-4.66.16-9.31.32-12.74.6 5.27-.38 9.12-.22 13.74-.56.7.12 2.07-.14 2.77 0 .31-.09-.76-.11.28-.13h1c-.66.18.32.15.71.25L64 8.34c.63-.06-.44-.09.28-.13 1.3-.06 2.29-.06 3.82-.14.46.11 1.49.15.94.31-4.59.09-10.82.49-16.28.66a32.34 32.34 0 0 0-4.33.19c2.45-.12 4.43 0 6.56 0 2.76-.05 5.7-.32 8.4-.34h1.76c.54 0 1.45-.12 2-.13s.69.06 1.25 0c1.16 0 2-.16 3.32-.19 2.14 0 4.24 0 6.58-.07.43 0 .25.18-.29.22L72 8.93c.32 0 .52 0 .49.08a13.22 13.22 0 0 0-1.78.06c2.11-.05 1.92.18 1.21.31-5.25.08-11.67.34-16 .37a10.93 10.93 0 0 1-1.55.22l-15.49.47c5.94 0 12.14-.24 19-.5a1.46 1.46 0 0 0 .74.08c2.93-.17 6.36-.23 8.64-.31l3 .33c7.23-.27 12.52.13 19.44 0 0 .1.51.11.72.17-.55.09-.92.19-1.56.27-1.14 0-2.3.11-3.3.07-5.83.4-14.11.4-21.36.72-.88.17-.18.27.43.39 3.5 0 6.69-.28 10.39-.18 1.33.32-.05.6-2.91.69-4.74.13-12.91.3-16 .34-13.89.56-27.67.85-41.9 1.45 7.91-.18 15.22-.57 22.31-.64 0-.07.23-.1.78-.11 7-.15 14.7-.35 20.81-.63 2.57.14 7.51-.23 10.11-.07-.64.36-2.77.56-5.44.71 2.73-.08 5.28 0 7.58-.06 1.88 0 5.13-.2 6.09-.15.23 0-.21.09.23.09-.77 0 1.38-.06 1.53-.07 1-.06.84-.08 2-.1h2.51c5.39-.06 10.61-.31 16-.33h1.77c.51 0 .08.08.75.08.38 0 .21-.07.77-.08 2.09 0 4.48 0 6.58-.07l15.71-.26c1 0-.3.13 1 .1l23-.22c.59 0 .12.14 1 .1 1.09 0 .82-.13 1.8-.14a13.74 13.74 0 0 1 1.49.13c9 0 18.34-.32 27.65-.46L206 11.4c6.5-.1 12.71-.29 18.52-.23 7.8-.15 14.54-.18 21.84-.25 5.26 0 11.05 0 15.47-.1.77 0 1.67-.09 2.56-.09 1.34 0 2.7.1 4 .1l10.94-.11h11.91c2.24 0 4.39-.09 6.62-.1l4.54.07c4.29 0 8.65-.14 12.71-.07 5.42.07 11 .24 16.48.13 6.07.12 13.45.17 19.26.16 2.36.13 4.76.15 7.25.14s5 0 7.7.07c.57 0 .94.07 1.51.09 8.06.3 17 .11 23.57.37 2.46-.12 4.56.08 6.84.15 2.46.08 4.74 0 7.11 0 .78 0 1.48.08 2.27.11 2.39.08 4.73 0 7.37.09 3.94.07 8.13.43 12.65.39 3.49.19 8.66.45 12.65.41 6.74.41 13.58.26 20.5.67 2.34.12 4.46.36 6.83.31 2.43.25 5.35.27 8.33.4l9.08.49c4.38.22 9.83.29 13.09.75 1.47.72 4.41-.12 7.89.2a5.35 5.35 0 0 1 2.38.71c1.64.19 3.2.21 4.8.24 1.85.24 3.2.62 5.69.76zM74.54 7.56s-.05-.06-.25-.06c.54-.16 1.71.03.25.06zm-.54.07c-2.11.06-5.07.26-6.6.19-.41 0 .37.16-.3.21-.9 0-2-.08-3.52 0-.11-.24 3-.17 3.11-.39A11.52 11.52 0 0 0 69 7.46c2.44 0 3-.14 4.82-.1-.49.15.33.1.18.27z" />
            </g>
        </g>
    </g>
</svg>