<svg xmlns="http://www.w3.org/2000/svg" viewBox="0 0 800 800">
	<defs>
		<linearGradient id="gradient" x1="0%" y1="50%" x2="100%" y2="50%" >
			<stop offset="0%" stop-color="#00CAA7">
				<animate attributeName="stop-color" values="#00CAA7; #0094AB; #00CAA7" dur="8s" repeatCount="indefinite"></animate>
			</stop>
			<stop offset="100%" stop-color="#0094AB">
				<animate attributeName="stop-color" values="#0094AB; #00CAA7; #0094AB" dur="8s" repeatCount="indefinite"></animate>
			</stop>
		</linearGradient>
	</defs>

	<g fill="url('#gradient')">
		<path
			d="M437 240.2c-8.8-9.5-2.5-47-16.7-64-12-14.4-34-20.5-51.5-22.9-43.6-6-50.6 49.5-42.1 81.4 3.8 14.4 17.6 35.4 6.3 47.9-15.2 16.8-54.2-1.1-73.6-2.7-24.1-1.9-46.7 4.9-49.6 31.8-2.4 22.9 30.2 58.6 27 80.8-3.3 22.6-35.7 8.4-36.3 29.7-.7 25.4 26.5 29.6 43.6 39.1 20.1 11.1 25.8 38.7 4.3 51.2-29.7 17.2-26.7 33.7-15.9 65 12.8 36.9 78.1 86.5 115.9 53.6 19.1-16.6 25.4-48.4 22.5-72.4-2.2-18.5-34.7-55.3 2.4-67.7 19.8-6.6 37.8 29.2 45.7 40.7 10.5 15.4 51 22.3 63.3 16.5 27-12.8 8.6-58.3 49.5-89.3 10.7-8.1 25.9-6.6 36.3-17 12.8-12.7 20-39 25.1-56 10.5-34.7-1.6-62.1-35.5-77.3-19-8.6-69.2 3.5-82.2-14.6-8.4-11.6 9.9-34.5-5-39.3-11.5-3.6-24.7-5-33.5-14.5zM494.4 585.8c-.5 15.9 6.6 26.3 21.6 30.6 7.7 2.2 16 6.1 23.2 2.7 6.4-3 9.3-9.6 12.4-15.4 6.3-11.8 15.1-25.4 5.2-37.4-5.6-6.8-19.5-17.6-37.8-11.9-18.4 5.7-24.1 15.5-24.6 31.4zM591.2 577.2c4.5-3.9 11.1-1.1 14 3.5 3.4 5.4 1.2 10-2.9 14.4-5.4 5.9-9.3 5.2-13.3-2-4.8-8.5-2.3-12 2.2-15.9zM513.3 209.7c3.4-13.9 6.8-17.9 21.4-21.9 17-4.7 19.3 5.3 17.3 20.8-1.4 11.1-9.2 18.5-18.7 23.9-6.2 3.6-26 17.6-32.2 9.5-2.2-3.6 5.6-5.8 12.2-32.3zM481.2 195.1c4.5-3.9 11.1-1.1 14 3.5 3.4 5.4 1.2 10-2.9 14.4-5.4 5.9-9.3 5.2-13.3-2-4.8-8.5-2.3-12 2.2-15.9z" />
		<path d="M476.6 240.7c-.2-3 2.9-4.8 5.7-4.5 3.2.3 4.4 2.6 4.9 5.5.7 3.9-.8 5.3-4.8 4.7-5-.6-5.6-2.7-5.8-5.7z" />
		<path d="M268.5 232.5c-15.2 5.4 5 27.6 14.1 14 6.7-10.1 1-19.4-14.1-14z" />
		<text x="400" y="750" width="400" style="font-size: 60px;" text-anchor="middle">loading...</text>
	</g>
</svg>