<svg xmlns="http://www.w3.org/2000/svg" viewBox="0 0 32 32"><path d="M19 11.62h5.09v-1.46H19zm2.51 2.92a2 2 0 00-2.08 2h4.07c-.3-1.54-.98-2-2.01-2zm.16 6a2 2 0 002-1.22h2.2a4 4 0 01-4.26 3.15c-3 0-4.66-2.12-4.66-4.93 0-6.63 9.56-6.87 9.08.62h-6.62c.06 1.54.69 2.41 2.24 2.41zm-9.92-.29c1.2 0 2-.46 2-1.71s-.74-1.86-2-1.86h-3v3.57zm-.16-5.52c1 0 1.69-.46 1.69-1.55s-.8-1.49-1.9-1.49H8.77v3zm.35-5.26c2.37 0 4 .78 4 3.22a2.78 2.78 0 01-1.71 2.72 3.13 3.13 0 012.31 3.29c0 2.55-2 3.77-4.44 3.77H6V9.5z" fill-rule="evenodd" fill="currentColor"/></svg>