<svg xmlns="http://www.w3.org/2000/svg" viewBox="0 0 32 32">
  <g id="github">
    <path d="M16,7.25a9,9,0,0,0-2.84,17.48c.45.09.62-.19.62-.43s0-.78,0-1.52c-2.49.54-3-1.21-3-1.21a2.42,2.42,0,0,0-1-1.31c-.82-.56.06-.54.06-.54a1.86,1.86,0,0,1,1.37.92,1.91,1.91,0,0,0,2.61.75,1.93,1.93,0,0,1,.57-1.2c-2-.23-4.08-1-4.08-4.44a3.45,3.45,0,0,1,.92-2.4A3.25,3.25,0,0,1,11.29,11s.75-.24,2.46.92a8.59,8.59,0,0,1,4.5,0C20,10.73,20.71,11,20.71,11a3.25,3.25,0,0,1,.09,2.38,3.41,3.41,0,0,1,.92,2.4c0,3.45-2.09,4.21-4.09,4.43a2.15,2.15,0,0,1,.61,1.66c0,1.2,0,2.17,0,2.46s.17.52.62.43A9,9,0,0,0,16,7.25Z" fill-rule="evenodd" fill="currentColor" />
  </g>
</svg>
