<svg xmlns="http://www.w3.org/2000/svg" viewBox="0 0 32 32">
    <path
        stroke="currentColor"
        d="M13 23.77a.58.58 0 00.27 1.11 2.46 2.46 0 00.47 0c1.07-.15 2.15-.29 3.22-.46 1.27-.22 2.54-.46 3.8-.7a3 3 0 001.47-.66c.08-.08.18-.22.17-.3a.39.39 0 00-.27-.21 3.31 3.31 0 00-.87-.12c-1.12.11-2.24.23-3.35.39-1.5.22-2.93.53-4.37.76-.18.07-.54.17-.54.19zM12.77 17a9.2 9.2 0 00-.35 2.86c0 .61.05 1.22.09 1.83a5.18 5.18 0 00.26 1.71c.1.27.68-.11.67-.27-.06-.88-.13-1.75-.18-2.63v-.78c0-.26.1-.14.13 0l.41 1.53a5.73 5.73 0 000-1.1c-.14-1-.29-2.08-.46-3.11 0-.13-.14-.33-.24-.35s-.28.12-.33.31zM19 20.17c-.21-.53-.3-1.67-.62-1.64-.09.08-.08.25-.1.38a12.41 12.41 0 00.05 2.51l.09.81c0 .18-.13.31-.36.34s-.23-.09-.26-.27c-.1-.67-.24-1.34-.32-2a15.18 15.18 0 01.15-4.36 2.92 2.92 0 01.13-.42c.08-.19.18-.39.42-.37s.32.21.36.4a9.64 9.64 0 01.24 1.19c.12 1 .22 2.09.32 3.14a1.51 1.51 0 010 .3c-.01.05-.1.05-.1-.01zm-9.22-9.8c.12-.41.23-.82.36-1.22a7 7 0 012.37-3.44 2.89 2.89 0 011.24-.61.48.48 0 11.3.91 6.55 6.55 0 00-3.15 2.58 16 16 0 00-.9 1.55c-.05.08-.09.18-.13.26s-.09.03-.09-.03zm8.36 15.18a1.82 1.82 0 011.91-.93 1.08 1.08 0 011 .94 2.1 2.1 0 01-2.62 2.17 1.3 1.3 0 01-.26-.14c-.08-.05-.13-.16-.08-.23a.21.21 0 01.22-.05 1.9 1.9 0 002.25-1.23.88.88 0 00-.93-1.22 1.82 1.82 0 00-1.1.49l-.31.25s-.11.03-.08-.05zM20.59 4a2.9 2.9 0 01-.33-.38 1.54 1.54 0 00-.93-.62c-.38-.08-.76-.14-1.15-.19s-.42-.16-.44-.37a.43.43 0 01.35-.44 1.64 1.64 0 011.5.27 3.57 3.57 0 011 1.28 2.12 2.12 0 01.11.45s-.07.07-.11 0z" />
    <path
        stroke="currentColor"
        d="M18.49 27.15c-.21 0-.16-.41-.12-.59a1.41 1.41 0 011.37-1c.09 0 .25.12.25.18s-.18.1-.27.1a1.24 1.24 0 00-1.17 1c-.01.16.04.3-.06.31z" />
    <path
        stroke="currentColor"
        d="M23.12 20.14c-.64-3.73-1.2-6.7-1.85-10.42a15.38 15.38 0 00-.78-3 1.21 1.21 0 00-2.27-.24 9.84 9.84 0 00-.86 1.64 33.74 33.74 0 00-1.56 5.92c0 .21-.08.42-.11.62s-.07.41-.11.62a.55.55 0 01-.07-.23 16.52 16.52 0 00-.93-3.66 3.74 3.74 0 00-.46-.83.71.71 0 00-1.15 0 2.58 2.58 0 00-.43.66 12.28 12.28 0 00-.92 2.61 32.3 32.3 0 00-.91 9.89 12.7 12.7 0 00.44 3.06 1.94 1.94 0 00.25.57.48.48 0 00.36.12c.16 0 .17-.17.16-.31 0-.38-.06-.76-.08-1.14a50.08 50.08 0 01-.09-5.34 40 40 0 01.76-5.87 15.83 15.83 0 01.84-3c0-.11.1-.22.16-.35a1 1 0 01.07.12c0 .12.09.23.13.35a15.4 15.4 0 01.75 3.41c.17 1.58.32 3.17.49 4.76.06.54.16 1.09.27 1.63a.54.54 0 101-.2v-.35c0-.93 0-1.87.07-2.8A40.18 40.18 0 0117.38 11a16.13 16.13 0 011.14-3.46 5 5 0 01.53-.82.39.39 0 01.66 0 1.41 1.41 0 01.19.39 6.66 6.66 0 01.29 1.06c.19 1.16.33 2.34.5 3.5.6 4.21 1.22 7.63 2.16 11.77.2 1 1.34 1.45.5-2.16-.08-.34-.16-.74-.23-1.14z" />
</svg>