<svg xmlns="http://www.w3.org/2000/svg" viewBox="0 0 32 32">
    <path d="M17.91 17.8c0-5.44-.84-15.73-1.88-15.74s-1.88 10.27-1.89 15.71c0 3.79.85 4 1.89 4s1.88-.18 1.88-3.97z"
        fill="none" stroke="currentColor" stroke-miterlimit="10" stroke-width=".4" />
    <path d="M16 20h0a.45.45 0 01-.44-.45v-6.74a.45.45 0 01.45-.45h0a.46.46 0 01.44.45v6.7A.44.44 0 0116 20z"
        fill="none" stroke="currentColor" stroke-miterlimit="10" stroke-width=".25" />
    <path
        d="M17.17 22.08h-2.32a.42.42 0 01-.42-.43.42.42 0 01.42-.43h2.32a.43.43 0 01.43.43.43.43 0 01-.43.43z"
        fill="currentColor" />
    <path
        d="M16.84 22.15a2.43 2.43 0 01.82 2 4.08 4.08 0 01-.77 2 11.07 11.07 0 00-.89 1.66 11.07 11.07 0 00-.86-1.69 4.18 4.18 0 01-.77-2 2.41 2.41 0 01.82-2h1.62m.12-.4H15.1a2.71 2.71 0 00-1.1 2.42c0 1.75 2 3 2 5.84 0-2.87 2-4.09 2-5.84a2.71 2.71 0 00-1-2.39z"
        fill="currentColor" />
    <path
        d="M15.76 22.14a2.35 2.35 0 00-.49 1.37 2.52 2.52 0 01.28-1.51zm.5-.14a4 4 0 01.57 1 2 2 0 01.17 1.09 3.74 3.74 0 01-.37 1.05 7.46 7.46 0 00-.45 1 6.93 6.93 0 01.39-1 4 4 0 00.31-1 2.78 2.78 0 00-.79-1.92z"
        fill="currentColor" />
    </svg>