<svg xmlns="http://www.w3.org/2000/svg" viewBox="0 0 32 32">
    <path stroke="currentColor"
        d="M14.91 15.58a1.35 1.35 0 01-1.54-.26L10.05 12A1.37 1.37 0 0112 10.07l3.31 3.32a1.32 1.32 0 01.26 1.52l.31.31a1.78 1.78 0 00-.28-2.12l-3.33-3.31a1.77 1.77 0 00-2.5 2.5l3.32 3.31a1.72 1.72 0 001.24.52 1.81 1.81 0 00.87-.24z" />
    <path stroke="currentColor" d="M18.63 18.86l-5.5-5.5a.16.16 0 01.22-.22l5.5 5.5a.16.16 0 11-.22.22z" />
    <path stroke="currentColor"
        d="M22.21 19.72l-3.32-3.31a1.8 1.8 0 00-2.11-.28l.3.3a1.2 1.2 0 01.57-.14 1.35 1.35 0 011 .4L21.92 20a1.34 1.34 0 010 1.93 1.39 1.39 0 01-1.92 0l-3.32-3.32a1.37 1.37 0 01-.4-1 1.41 1.41 0 01.14-.57l-.3-.3a1.75 1.75 0 00-.24.87 1.79 1.79 0 00.52 1.25l3.32 3.31a1.71 1.71 0 001.24.52A1.78 1.78 0 0022.72 21a1.78 1.78 0 00-.51-1.28z" />
</svg>