<svg xmlns="http://www.w3.org/2000/svg" viewBox="0 0 32 32">
    <circle cx="15.99" cy="15.99" r="5.02" stroke="currentColor" fill="currentColor" stroke-linejoin="round" stroke-width=".29" />
    <path d="M16 26h-.1C10.46 26 7 16 6 16h0c1 0 4.48-10 10-10h0c5.47 0 9 10 10 10h0c-1 0-4.49 10-10 10z" fill="none"
        stroke="currentColor" stroke-linejoin="round" stroke-width=".4" />
    <circle cx="15.99" cy="15.99" r="6.94" fill="none" stroke="currentColor" stroke-linejoin="round"
        stroke-width=".25" />
    <circle cx="17.02" cy="13.98" r="1.94" fill="#fff" />
    <circle cx="19.31" cy="15.67" r=".45" fill="#fff" />
    <path d="M24 13.14a7 7 0 01.73 2.86 6.84 6.84 0 01-.73 2.79M7.4 14.24A5.56 5.56 0 006.87 16a5.6 5.6 0 00.48 1.73"
        fill="none" stroke="currentColor" stroke-miterlimit="10" stroke-width=".25" />
    <path d="M7.42 14S11.79 6.62 16 6.62s8.59 7.69 8.59 7.69M7.13 17.47s5 7.9 8.88 7.9 8.19-7.06 8.19-7.06" fill="none"
        stroke="currentColor" stroke-linejoin="round" stroke-width=".1" />
</svg>